<svg width="512" height="512" viewBox="0 0 512 512" fill="none" xmlns="http://www.w3.org/2000/svg">
  <rect width="512" height="512" rx="64" fill="#0F0F23"/>
  <rect x="32" y="32" width="448" height="448" rx="32" fill="#1A1A2E" stroke="#00D4FF" stroke-width="8"/>
  
  <!-- NFT Grid -->
  <rect x="80" y="80" width="120" height="120" rx="16" fill="#00D4FF" opacity="0.8"/>
  <rect x="216" y="80" width="120" height="120" rx="16" fill="#FF6B6B" opacity="0.8"/>
  <rect x="352" y="80" width="120" height="120" rx="16" fill="#4ECDC4" opacity="0.8"/>
  
  <rect x="80" y="216" width="120" height="120" rx="16" fill="#45B7D1" opacity="0.8"/>
  <rect x="216" y="216" width="120" height="120" rx="16" fill="#96CEB4" opacity="0.8"/>
  <rect x="352" y="216" width="120" height="120" rx="16" fill="#FFEAA7" opacity="0.8"/>
  
  <rect x="80" y="352" width="120" height="120" rx="16" fill="#DDA0DD" opacity="0.8"/>
  <rect x="216" y="352" width="120" height="120" rx="16" fill="#98D8C8" opacity="0.8"/>
  <rect x="352" y="352" width="120" height="120" rx="16" fill="#F7DC6F" opacity="0.8"/>
  
  <!-- Center Logo -->
  <circle cx="256" cy="256" r="40" fill="#00D4FF"/>
  <text x="256" y="270" text-anchor="middle" fill="#0F0F23" font-family="Arial, sans-serif" font-size="32" font-weight="bold">N</text>
</svg> 